<?xml version="1.0" encoding="UTF-8"?>
<svg data-name="Layer 1" viewBox="0 0 526.72 570.67" xmlns="http://www.w3.org/2000/svg">
<defs>
<linearGradient id="a" x1="274.75" x2="274.75" y1="43.22" y2="608.57" gradientTransform="matrix(1 0 0 -1 -26.97 779.96)" gradientUnits="userSpaceOnUse">
<stop stop-color="gray" stop-opacity=".25" offset="0"/>
<stop stop-color="gray" stop-opacity=".12" offset=".54"/>
<stop stop-color="gray" stop-opacity=".1" offset="1"/>
</linearGradient>
</defs>
<title>test4</title>
<path transform="translate(-63.72 -171.39)" d="M581.53,501.59c-13,27-39.55,45.06-67,57-37,16-77.68,22.39-117.84,19.7q-10.55-.71-21-2.25a264.76,264.76,0,0,1-70.38-20.55q-9.69-4.38-19-9.56a242.47,242.47,0,0,1-29.69-19.49q-3.56-2.71-7-5.57c-1.59-1.32-3.17-2.67-4.78-4A60.35,60.35,0,0,0,234,509.5a38.62,38.62,0,0,0-3.6-1.6c-12.32-4.7-26.53-2.92-39.35.74-9.76,2.79-19.27,6.61-29,9.33a94.81,94.81,0,0,1-13.22,2.82,70.1,70.1,0,0,1-29.7-2.61l-.82-.26c-1.37-.43-2.73-.91-4.09-1.42l-.82-.32c-1.31-.5-2.59-1-3.84-1.63l-.82-.37c-1.31-.61-2.6-1.26-3.85-1.94l-1.34-.73a80.57,80.57,0,0,1-19.24-15c-.16-.16-.31-.33-.49-.49-.78-.85-1.54-1.71-2.29-2.59-.27-.33-.55-.65-.82-1-.88-1.07-1.73-2.18-2.55-3.3l-.35-.49a70.78,70.78,0,0,1-8.28-15c-.07-.16-.14-.33-.2-.49q-1-2.53-1.79-5.16c-.22-.73-.43-1.48-.62-2.2l-.18-.66c-2.71-10.71-3-21.84-3-32.9v-3.87c.08-17.9.36-36.1,3-53.76a2.23,2.23,0,0,1,.05-.36,168.79,168.79,0,0,1,3.6-17.65,130.53,130.53,0,0,1,6-17.88c6.06-14.29,14.86-27.29,24.64-39.34C125.68,269,158,243.54,195.79,234c40.75-10.27,86-.43,118.89,25.81,10,8,19,17.48,30.28,23.61,9.82,5.34,21.32,7.56,31.84,3.35,8.7-3.47,14.36-5.19,24.12-4.67A201.86,201.86,0,0,1,460,294.53l2.29.86c49.47,19,92,56.7,114.1,105.17.58,1.28,1.15,2.57,1.7,3.87C591.31,435.31,596.07,471.49,581.53,501.59Z" fill="#6c63ff" opacity=".1" style="isolation:isolate"/>
<ellipse cx="178.95" cy="555.47" rx="156.53" ry="15.2" fill="#6c63ff" opacity=".1" style="isolation:isolate"/>
<path transform="translate(-63.72 -171.39)" d="M344.71,731.44a28.61,28.61,0,0,0-2.68-7.61l-12-17.92h.07s-1.89-9,0-13.42-6.74-15.29-6.74-15.29-1.05-2.73,1.69-6.09-1.69-13.2-1.69-13.2-2.1-20.55-2.31-23.69-1.9-20.54-1.9-20.54l-4-36.89L308,479l-.13-1.83c.88-.43,1.35-.7,1.35-.7l-1.42-54.06,1.23-1.11c10.74-9.72,35.51-32.22,35.26-32.71s-3-37.57-3.32-46.85a55.79,55.79,0,0,0-4.26-19.18c-.62-1.23-2.41-9.34-3.15-12.77-.2-.94-.33-1.53-.33-1.53s-7.26-13.84-6.63-20.13,1.89-11-13.59-13.2c0,0-13-1.94-20.74-7.23a59.11,59.11,0,0,0-14.86-7.44s-4.34-8-7.36-5.29a42.06,42.06,0,0,1-2.85-8.91l-.09-.56a29.44,29.44,0,0,0,11.64-16.66c.1-.38.18-.77.27-1.15a3.25,3.25,0,0,0,.93.17c2.63,0,4.25-2.93,6.71-3.86,1-.39,2.23-.45,3-1.24a2.94,2.94,0,0,0,.66-2.21,3.75,3.75,0,0,0,0-.82,1.4,1.4,0,0,0,0-.29v.1c-.67-3.64-3.49-6.87-3.18-10.57.3-3.48,3.36-6.54,3.11-9.93a5.4,5.4,0,0,0-.07-.8v.12a8.55,8.55,0,0,0-2-3.54,11.49,11.49,0,0,0-4.12-3.46c-1.39-.61-3-.75-4.3-1.48-3.82-2.08-3.81-7.5-6.08-11.2a9.91,9.91,0,0,0-9.27-4.59c-2.84.28-5.41,1.79-8.22,2.28-3.84.68-7.75-.57-11.39-2s-7.33-3-11.24-3-8.14,2-9.32,5.69c-.63,2-.32,4.15-.8,6.18-.86,3.58-4,6.14-7.25,7.92-2,1.11-4.38,2.38-5,4.48v-.16a4.59,4.59,0,0,0-.1.51,3.75,3.75,0,0,0,0,.67,12.61,12.61,0,0,0,1.27,4.18,11.53,11.53,0,0,1-.06,8.06c-.74,1.9-2,3.57-2.72,5.46a10.75,10.75,0,0,0-.66,2.74V217c0,.43,0,.86,0,1.28a9,9,0,0,0,1,4.2,7.57,7.57,0,0,0,4.49,3.77c2,.46,3.25-1.5,5.36-1a8.42,8.42,0,0,1,1.11.35c.07.45.14.9.22,1.34a29.38,29.38,0,0,0,10.14,17.17,6.45,6.45,0,0,0,.11.73h0a66.77,66.77,0,0,1,.83,12.06s-3.15-4.61-7.47,4.29c0,0-11.27,6.5-15.16,7.24s-17.7,5.55-17.7,5.55a12.11,12.11,0,0,1-7.16,2.31c-4.31,0-7.89,9.43-7.37,14.56s-.31,8.91-4.32,9.12-1.82,8.34-1.79,8.48l-.37,1.75c-.78,3.58-2.48,11.26-3.08,12.46a56,56,0,0,0-4.27,19.18c-.31,9.28-3,46.22-3.31,46.85-.21.41,16.76,15.92,28.69,26.76l1.73,1.56-5.49,51.28a13.71,13.71,0,0,0,5.64,10c0,.6,0,1.21-.06,1.84-.24,6-.72,13.26-1.68,15.16-1.68,3.36-1.26,21.38-1.26,21.38s-1.69,36.68-3.79,40.67-2.53,12.36-1.9,14S180,617,180,617l-2.1,19.71s.63,18.86-1.27,19.28-3,13.42-3,13.42-6.73,9.22-3.79,12.57-.43,4.83-.74,5.66-6.42,4-2,15.72a3.45,3.45,0,0,0,.14.34c-4.14,5.75-17.26,24.3-16.46,27.12a7.39,7.39,0,0,0,3.5,4.2c3.09,1.85,8.39,2.71,16.82,0,14-4.51,13-7.76,13-7.76a6,6,0,0,1,5.9-5.66c5.79-.42,10.11-5.76,10.11-5.76l-.68-2.53-.93-3.5c.11-1,.82-2.75,4-3.72,4.85-1.47,3.58-10.69,3.58-10.69s-.42-9.64,1.68-10.9,1.27-17.19,1.27-17.19,2.32-11.53,5.68-19.29,7.38-53.86,7.38-53.86,2.73-22.64,5.26-29.14,4.85-24.73,4.85-24.73,15.59-30.19,15.79-36.9c0,0,2-6.29,4,.63s7.62,23.48,7.62,23.48l5.47,20.33,6.53,30.39,4.22,25.58s-.64,9.64,1,13,4,11.1,2.74,12.57,2.52,8.39,3.58,9.85,0,32.49,0,32.49,4.84,26.41,11.79,31a8.34,8.34,0,0,0,1.54.8c-.1,2.86-.2,6.69-.07,8.69a3.44,3.44,0,0,0,.22,1.31c.63.84,7.79,6.5,9.27,6.5s6.73,3.67,6.95,5.45,15.39,9.32,17.54,9.54,12.57,2.09,14-.84A4.74,4.74,0,0,0,344.71,731.44ZM307.44,353.72l1.08.93s1.11,8.65,1.9,11.24-.16,7.63-.16,7.63a17.54,17.54,0,0,0,1.11,5.5c.94,1.89-1.9,6-1.9,6h-2.53l-.79-32.38ZM232.21,257v-.19a.63.63,0,0,0,0,.19ZM193.36,381.69a3.63,3.63,0,0,1-.16-2.67,7.67,7.67,0,0,0,.53-1.48,22.43,22.43,0,0,0,.58-4v-.05c-.09-.48-.9-5.12-.15-7.58s1.89-11.24,1.89-11.24l.72-.61,1.67-1.45a11.87,11.87,0,0,1,.12-1.43c.35,7.6.63,16,.18,16.42-.84.83-3.9,9-3.16,9.32.24.11-.09,3.38-.65,7.78A15.94,15.94,0,0,1,193.36,381.69Z" fill="url(#a)"/>
<path transform="translate(-63.72 -171.39)" d="m274 265v12.44l-25.56 12.86s-25.34-15.3-19.09-21.43c4-3.86 3.23-14.46 2.15-21.75-0.63-4.24-1.36-7.35-1.36-7.35s45.52-13 38.64-3.13c-2.3 3.3-2.48 7.57-1.71 11.8 1.56 8.39 6.93 16.56 6.93 16.56z" fill="#eabb8c"/>
<path transform="translate(-63.72 -171.39)" d="M204.05,386.68l-3.29,40.52s-4.93-4.47-11.31-10.29c-11.83-10.79-28.63-26.22-28.43-26.63.31-.63,3-37.39,3.29-46.63a55.66,55.66,0,0,1,4.22-19.08c.6-1.2,2.29-8.84,3-12.41.24-1.11.39-1.83.39-1.83l5.52-2.22s23,25.66,23,26.13-1.57,20.18-1.57,20.18l-1.63,1.42-.71.61s-1.1,8.61-1.88,11.19.06,7.06.15,7.54h0a22.42,22.42,0,0,1-.57,4,8.3,8.3,0,0,1-.53,1.47,3.7,3.7,0,0,0,.16,2.66,16.09,16.09,0,0,0,1.72,3.29Z" fill="#3f3d56"/>
<path transform="translate(-63.72 -171.39)" d="m343.44 390.28c0.24 0.49-24.29 22.88-34.92 32.55l-4.82 4.37-3.26-40.52h8.45s2.82-4.07 1.88-5.95a17.62 17.62 0 0 1 -1.09 -5.47s0.93-5 0.15-7.59-1.83-11.19-1.83-11.19l-1.07-0.92-1.27-1.11s-1.66-19.71-1.66-20.18 23-26.13 23-26.13l5.48 2.19s0.12 0.59 0.32 1.53c0.74 3.41 2.51 11.48 3.12 12.71a55.66 55.66 0 0 1 4.22 19.08c0.3 9.24 2.98 46 3.3 46.63z" fill="#3f3d56"/>
<path transform="translate(-63.72 -171.39)" d="M343.54,734.22c-1.47,2.92-11.79,1-13.92.84s-17.17-7.73-17.38-9.5-5.42-5.42-6.88-5.42-8.55-5.64-9.18-6.47a3.17,3.17,0,0,1-.21-1.3c-.22-3.43.21-12.26.21-12.26l30.25,1.67,14.7,22.11a28.42,28.42,0,0,1,2.66,7.57A5,5,0,0,1,343.54,734.22Z" fill="#3f3d56"/>
<path transform="translate(-63.72 -171.39)" d="M343.54,734.22c-1.47,2.92-11.79,1-13.92.84s-17.17-7.73-17.38-9.5-5.42-5.42-6.88-5.42-8.55-5.64-9.18-6.47a3.17,3.17,0,0,1-.21-1.3c-.22-3.43.21-12.26.21-12.26l30.25,1.67,14.7,22.11a28.42,28.42,0,0,1,2.66,7.57A5,5,0,0,1,343.54,734.22Z" opacity=".1" style="isolation:isolate"/>
<path transform="translate(-63.72 -171.39)" d="M343.54,734.22c-1.47,2.92-11.79,1-13.92.84s-17.17-7.73-17.38-9.5-5.42-5.42-6.88-5.42-8.55-5.64-9.18-6.47a3.17,3.17,0,0,1-.21-1.3l9.8,6.2s6.26,4,7.93,6.37,14.83,7.3,15.92,7.4c.81.08,9.45-1.58,14.17-.88A5,5,0,0,1,343.54,734.22Z" opacity=".1" style="isolation:isolate"/>
<path transform="translate(-63.72 -171.39)" d="M200.54,716s-4.28,5.32-10,5.73a5.9,5.9,0,0,0-5.84,5.63s1,3.24-12.83,7.73c-8.35,2.69-13.6,1.84-16.66,0a7.44,7.44,0,0,1-3.47-4.18c-.94-3.33,17.52-28.68,17.52-28.68l16.8-1,12,5.42,1.84,6.87Z" fill="#3f3d56"/>
<path transform="translate(-63.72 -171.39)" d="M200.54,716s-4.28,5.32-10,5.73a5.9,5.9,0,0,0-5.84,5.63s1,3.24-12.83,7.73c-8.35,2.69-13.6,1.84-16.66,0a7.44,7.44,0,0,1-3.47-4.18c-.94-3.33,17.52-28.68,17.52-28.68l16.8-1,12,5.42,1.84,6.87Z" opacity=".1" style="isolation:isolate"/>
<path transform="translate(-63.72 -171.39)" d="M200.54,716s-4.28,5.32-10,5.73a5.9,5.9,0,0,0-5.84,5.63s1,3.24-12.83,7.73c-8.35,2.69-13.6,1.84-16.66,0,7.87-.82,25.26-5.79,27-7.51,2.09-2.09,4.7-7.83,6.47-7.93,1.23-.08,7.48-3.84,11.23-6.17Z" fill="none"/>
<path transform="translate(-63.72 -171.39)" d="M200.54,716s-4.28,5.32-10,5.73a5.9,5.9,0,0,0-5.84,5.63s1,3.24-12.83,7.73c-8.35,2.69-13.6,1.84-16.66,0,7.87-.82,25.26-5.79,27-7.51,2.09-2.09,4.7-7.83,6.47-7.93,1.23-.08,7.48-3.84,11.23-6.17Z" opacity=".1" style="isolation:isolate"/>
<path transform="translate(-63.72 -171.39)" d="M329.35,692.71c-1.88,4.38,0,13.35,0,13.35s-28,1.46-34.84-3.13-11.68-30.88-11.68-30.88,1-30.87,0-32.33-4.8-8.34-3.55-9.8-1-9.18-2.71-12.52-1-12.93-1-12.93L271.39,579l-6.46-30.24-5.49-20.24s-5.63-16.48-7.54-23.36-3.93-.63-3.93-.63c-.2,6.68-15.64,36.72-15.64,36.72s-2.3,18.15-4.8,24.61-5.22,29-5.22,29-4,45.89-7.3,53.61-5.57,19.19-5.57,19.19.84,15.86-1.25,17.11-1.75,10.85-1.75,10.85,1.25,9.17-3.55,10.64-4,4.59-4,4.59-26.7,4.38-31.08-7.31,1.67-14.8,2-15.64,3.66-2.29.74-5.64,3.75-12.51,3.75-12.51,1-12.93,2.92-13.35,1.26-19.19,1.26-19.19l2.08-19.61s2.72-43.81,2.09-45.48-.21-10,1.88-14,3.75-40.48,3.75-40.48-.42-17.93,1.25-21.27c1-1.89,1.42-9.16,1.66-15.09.18-4.53.22-8.28.22-8.28l23.36-8.76,30-9.59L270,466.76l36.93,7.09.46,6.37,7.05,97.31,4,36.71s1.67,17.31,1.88,20.44,2.29,23.58,2.29,23.58,4.38,9.8,1.67,13.14-1.67,6-1.67,6S331.23,688.33,329.35,692.71Z" fill="#3f3d56"/>
<path transform="translate(-63.72 -171.39)" d="m268.8 236.64c-2.3 3.3-2.48 7.57-1.71 11.8a29.34 29.34 0 0 1 -35.57 -1.33c-0.63-4.24-1.36-7.35-1.36-7.35s45.52-12.98 38.64-3.12z" opacity=".1" style="isolation:isolate"/>
<path transform="translate(-63.72 -171.39)" d="m279.44 223.88a29.3 29.3 0 1 1 -29.3 -29.3 29.16 29.16 0 0 1 29.3 29z" fill="#f2c897"/>
<polygon points="221.82 101.18 212.22 272.13 160.07 261.18 149.74 192.65 159.97 100.65 167.67 101.64 181.25 103.37 194.7 104.2 209.28 102.58" opacity=".1" style="isolation:isolate"/>
<polygon points="221.82 102.43 212.22 273.38 160.07 262.43 149.74 193.9 159.97 101.91 167.67 102.89 181.25 104.62 194.7 105.45 209.28 103.83" fill="#6c63ff"/>
<path transform="translate(-63.72 -171.39)" d="M242.67,278.41l18.78.63-5.28,7.39s.37,14.93,2.88,19.21,1.77,70.4,1.77,70.4l-5,9.49-8.55-10.64.11-87.3Z" fill="#3f3d56"/>
<path transform="translate(-63.72 -171.39)" d="M242.67,278.41l18.78.63-5.28,7.39s.37,14.93,2.88,19.21,1.77,70.4,1.77,70.4l-5,9.49-8.55-10.64.11-87.3Z" opacity=".1" style="isolation:isolate"/>
<polygon points="208.36 87.62 190.84 107.02 200.85 117.45 217.44 101.28" opacity=".1" style="isolation:isolate"/>
<polygon points="208.36 86.37 190.84 105.77 200.85 116.2 217.44 100.03" fill="#6c63ff"/>
<polygon points="183.44 106.08 165.7 88.35 164.03 97.63 172.17 117.97" opacity=".1" style="isolation:isolate"/>
<polygon points="184.06 104.83 166.33 87.1 164.66 96.38 172.8 116.72" fill="#6c63ff"/>
<path transform="translate(-63.72 -171.39)" d="M307.49,480.25a86.27,86.27,0,0,1-27,7.81C263.28,490.25,252,468.35,252,468.35l-6.57,8.55c-2.09,9.08-33.9,11.37-46.83,7.93a20.61,20.61,0,0,1-7.42-3.51c.18-4.53.22-8.28.22-8.28l23.36-8.76,30-9.59L270,466.79,307,473.88Z" opacity=".1" style="isolation:isolate"/>
<path transform="translate(-63.72 -171.39)" d="M285.54,273.83,276,444.77l-52.16-10.95L213.44,365.3l10.22-92,7.7,1a93.27,93.27,0,0,1-1.13,10c-1.25,5.85,6.47,47.36,6.47,47.36S251.37,378.21,258,371.5s16-42.14,16-42.14c6.37-13.14.11-50-.36-50.74a14.63,14.63,0,0,1-.6-3.35Z" opacity=".1" style="isolation:isolate"/>
<path transform="translate(-63.72 -171.39)" d="M308.07,406.11l.44,16.75-4.82,4.37-3.25-40.55h7.2Z" opacity=".1" style="isolation:isolate"/>
<path transform="translate(-63.72 -171.39)" d="m194.81 375.21a22.42 22.42 0 0 1 -0.57 4c0-0.37 0-0.58-0.08-0.61-0.3-0.08 0.06-1.6 0.65-3.39z" opacity=".1" style="isolation:isolate"/>
<path transform="translate(-63.72 -171.39)" d="M204.05,386.68l-3.29,40.52s-4.93-4.47-11.31-10.29l.76-7.18s2.69-17.64,3.67-26.34a16.09,16.09,0,0,0,1.72,3.29Z" opacity=".1" style="isolation:isolate"/>
<path transform="translate(-63.72 -171.39)" d="M232.34,259.11s-3.12-4.59-7.4,4.27c0,0-11.16,6.47-15,7.2s-17.5,5.53-17.5,5.53a12,12,0,0,1-7.09,2.29c-4.28,0-7.83,9.39-7.31,14.5s-.31,8.87-4.27,9.08-1.78,8.44-1.78,8.44l26.39,30.25s1.67,27.85.84,28.69-3.86,9-3.13,9.28-4,31.08-4,31.08l-6.36,59.77s0,10,12.94,13.45,44.77,1.17,46.82-7.91l6.57-8.56s11.26,21.91,28.47,19.72,28.17-8.45,28.17-8.45l-1.88-71.63-1.25-51.63,26.87-44.15s-7.2-13.77-6.57-20,1.87-10.95-13.46-13.14c0,0-12.93-1.93-20.55-7.2a59.14,59.14,0,0,0-14.7-7.4s-4.3-8-7.29-5.26c0,0,3,11.31,2.75,13s.47,9.33.94,10.12,6.73,37.6.36,50.74c0,0-9.35,35.43-16,42.14s-21.27-39.84-21.27-39.84-7.72-41.52-6.47-47.36S232.34,259.11,232.34,259.11Z" fill="#3f3d56"/>
<circle cx="190.94" cy="219.88" r="4.59" fill="#3f3d56"/>
<circle cx="190.94" cy="241.52" r="4.59" fill="#3f3d56"/>
<circle cx="190.94" cy="219.88" r="4.59" opacity=".1" style="isolation:isolate"/>
<circle cx="190.94" cy="241.52" r="4.59" opacity=".1" style="isolation:isolate"/>
<path transform="translate(-63.72 -171.39)" d="m295.91 686.45s18.84 1.46 20.71 2.92-20.71-2.92-20.71-2.92z" opacity=".1" stroke="#6c63ff" stroke-miterlimit="10" style="isolation:isolate"/>
<path transform="translate(-63.72 -171.39)" d="m183.74 671.64s4 5 2.3 7.3-2.3-7.3-2.3-7.3z" opacity=".1" stroke="#6c63ff" stroke-miterlimit="10" style="isolation:isolate"/>
<path transform="translate(-63.72 -171.39)" d="m188.54 689.67s7.3-4.8 10.22-1.61-10.22 1.61-10.22 1.61z" opacity=".1" stroke="#6c63ff" stroke-miterlimit="10" style="isolation:isolate"/>
<path transform="translate(-63.72 -171.39)" d="M279.44,223.88a29,29,0,0,1-.94,7.41,3.33,3.33,0,0,1-1.94-3.26c.13-1.19.92-2.28.75-3.46-.25-1.82-2.45-2.56-3.61-4-1.43-1.74-1.12-4.27-1-6.52s-.45-5-2.56-5.77c-.63-.23-1.32-.25-1.93-.51-1.66-.7-2.17-2.76-3.28-4.18-2.22-2.86-6.63-2.8-10-1.44a46.46,46.46,0,0,1-4.5,1.88,5.87,5.87,0,0,1-4.71-.35c-.66-.42-1.19-1-1.87-1.42-2.26-1.36-5.22,0-7.18,1.75s-3.53,4.1-6,5.17c-1.11.5-2.48.8-3,1.88a3.88,3.88,0,0,0-.32,1.87c0,3.89.46,7.84-.35,11.65-.52,2.45-2.24,5.23-4.73,4.93a4.19,4.19,0,0,1-.91-.23,29.3,29.3,0,1,1,58.1-5.42Z" opacity=".1" style="isolation:isolate"/>
<path transform="translate(-63.72 -171.39)" d="M220.05,227.62c.75.17,1.46.56,2.23.66,2.49.3,4.21-2.48,4.73-4.93.81-3.81.39-7.76.36-11.65a3.87,3.87,0,0,1,.31-1.87c.57-1.08,1.94-1.38,3-1.88,2.42-1.08,4-3.38,6-5.17s4.91-3.11,7.17-1.75c.67.4,1.21,1,1.87,1.42a6,6,0,0,0,4.72.35c1.55-.46,3-1.27,4.49-1.88,3.34-1.36,7.76-1.41,10,1.43,1.11,1.43,1.62,3.48,3.28,4.18.61.26,1.3.29,1.93.52,2.11.79,2.65,3.52,2.56,5.77s-.39,4.78,1,6.52c1.16,1.42,3.36,2.16,3.61,4,.16,1.18-.62,2.28-.75,3.46a3.32,3.32,0,0,0,3.09,3.54h0c2.6,0,4.21-2.91,6.64-3.84,1-.39,2.21-.45,3-1.24a3.3,3.3,0,0,0,.62-2.71c-.49-3.83-3.56-7.16-3.23-11,.31-3.68,3.72-6.89,3-10.51a8.55,8.55,0,0,0-2-3.57,11.62,11.62,0,0,0-4.08-3.45c-1.39-.6-3-.74-4.27-1.47-3.78-2.07-3.77-7.47-6-11.15a9.79,9.79,0,0,0-9.12-4.54c-2.81.28-5.36,1.77-8.14,2.27-3.81.68-7.67-.57-11.28-2s-7.26-3-11.13-3-8.06,2-9.24,5.66c-.62,2-.31,4.14-.79,6.15-.84,3.57-4,6.11-7.18,7.88-2.19,1.22-4.82,2.62-5.08,5.11-.17,1.58.7,3,1.25,4.53a11.47,11.47,0,0,1-.06,8c-.73,1.89-1.95,3.55-2.69,5.43a9.75,9.75,0,0,0,.26,8,7.43,7.43,0,0,0,4.57,3.75C216.71,229.11,218,227.16,220.05,227.62Z" fill="#3f3d56"/>
<g opacity=".1">
<path transform="translate(-63.72 -171.39)" d="M227,221.17c-.52,2.45-2.25,5.23-4.74,4.93-.77-.1-1.47-.49-2.23-.66-2.09-.46-3.33,1.5-5.3,1a7.45,7.45,0,0,1-4.58-3.75,8.71,8.71,0,0,1-.93-3.27,9.18,9.18,0,0,0,.93,5.15,7.45,7.45,0,0,0,4.58,3.75c2,.46,3.21-1.5,5.3-1a21.84,21.84,0,0,0,2.23.65c2.49.31,4.22-2.47,4.74-4.92a28.93,28.93,0,0,0,.48-6.57A24.55,24.55,0,0,1,227,221.17Z"/>
<path transform="translate(-63.72 -171.39)" d="M213.31,206.11a11.51,11.51,0,0,0-.66-4.83,24.81,24.81,0,0,1-1.15-3.16,4.59,4.59,0,0,0-.1.51c-.17,1.57.71,3,1.25,4.53A11.47,11.47,0,0,1,213.31,206.11Z"/>
<path transform="translate(-63.72 -171.39)" d="m289.71 200.84c-0.47 2.84-2.77 5.51-3 8.5a7.92 7.92 0 0 0 0 1.54c0.5-3.49 3.59-6.58 3-10.04z"/>
<path transform="translate(-63.72 -171.39)" d="M289.88,221.94a2.27,2.27,0,0,1-.57,1.12c-.74.79-2,.85-3,1.24-2.43.93-4,3.87-6.64,3.84a3.36,3.36,0,0,1-3-2.32,5.18,5.18,0,0,0-.14.66,3.32,3.32,0,0,0,3.1,3.53h0c2.61,0,4.21-2.91,6.64-3.83,1-.39,2.22-.45,3-1.24a3.3,3.3,0,0,0,.62-2.71C289.91,222.11,289.89,222,289.88,221.94Z"/>
<path transform="translate(-63.72 -171.39)" d="M277.34,221.11c-.25-1.82-2.45-2.56-3.61-4a5.44,5.44,0,0,1-1.1-3.28c-.08,1.86-.05,3.76,1.1,5.16s2.9,2,3.46,3.44A3.26,3.26,0,0,0,277.34,221.11Z"/>
<path transform="translate(-63.72 -171.39)" d="M272.69,210.64c.08-2.25-.46-5-2.57-5.77-.62-.23-1.31-.26-1.92-.51-1.66-.7-2.18-2.76-3.28-4.18-2.23-2.85-6.64-2.8-10-1.44-1.5.61-2.93,1.42-4.49,1.88a5.87,5.87,0,0,1-4.71-.35c-.66-.42-1.2-1-1.87-1.42-2.27-1.36-5.23,0-7.18,1.75s-3.53,4.09-6,5.17c-1.12.5-2.48.8-3.06,1.88a4,4,0,0,0-.31,1.87v1.17a2.76,2.76,0,0,1,.29-1.16c.58-1.08,1.94-1.38,3.06-1.88,2.42-1.08,4-3.38,6-5.17s4.91-3.11,7.18-1.75c.67.4,1.21,1,1.87,1.41a5.82,5.82,0,0,0,4.71.35,45.19,45.19,0,0,0,4.49-1.87c3.35-1.36,7.76-1.42,10,1.43,1.1,1.42,1.62,3.48,3.28,4.18.61.26,1.3.29,1.92.52,1.71.64,2.39,2.56,2.54,4.46Z"/>
</g>
<g opacity=".1">
<path transform="translate(-63.72 -171.39)" d="M223.44,221.11a7.67,7.67,0,0,1,5.78-7.17,24,24,0,0,1,13.48.61c9.49,3.14-1.2,14.44-1.2,14.44s-7.11,7-13.74,2.11a10.36,10.36,0,0,1-3.87-6A15.71,15.71,0,0,1,223.44,221.11Z"/>
<path transform="translate(-63.72 -171.39)" d="M275.61,221.11a7.68,7.68,0,0,0-5.79-7.17,24,24,0,0,0-13.47.61c-9.49,3.14,1.2,14.44,1.2,14.44s7.1,7,13.74,2.11a10.36,10.36,0,0,0,3.87-6A14.86,14.86,0,0,0,275.61,221.11Z"/>
<polygon points="177.19 42.24 177.19 42.71 194.52 42.71 194.52 42.15"/>
<path transform="translate(-63.72 -171.39)" d="M246.44,218.64H247v-1.59s1.76-1.37,4.68,0v1.42h1v-.93h-.49s.2-1.93-3.06-1.62c0,0-2.62-.25-2.56,1.41H246Z"/>
</g>
<path transform="translate(-63.72 -171.39)" d="M223.44,220.46a7.67,7.67,0,0,1,5.78-7.17,24.16,24.16,0,0,1,13.48.61c9.49,3.15-1.2,14.44-1.2,14.44s-7.11,7-13.74,2.11a10.33,10.33,0,0,1-3.87-6A15.27,15.27,0,0,1,223.44,220.46Z" fill="#6c63ff"/>
<path transform="translate(-63.72 -171.39)" d="M275.61,220.46a7.68,7.68,0,0,0-5.79-7.17,24.13,24.13,0,0,0-13.47.61c-9.49,3.15,1.2,14.44,1.2,14.44s7.1,7,13.74,2.11a10.28,10.28,0,0,0,3.87-6A14.86,14.86,0,0,0,275.61,220.46Z" fill="#6c63ff"/>
<polygon points="177.19 41.61 177.19 42.09 194.52 42.09 194.52 41.52" fill="#6c63ff"/>
<path transform="translate(-63.72 -171.39)" d="M246.44,218H247v-1.59s1.76-1.36,4.68,0v1.43h1v-.94h-.49s.2-1.92-3.06-1.62c0,0-2.62-.24-2.56,1.41H246Z" fill="#6c63ff"/>
<ellipse cx="422.79" cy="554.97" rx="72.72" ry="11.68" fill="#6c63ff" opacity=".1" style="isolation:isolate"/>
<rect x="420.45" y="331.23" width="4.68" height="105.35" fill="#535461"/>
<path transform="translate(-63.72 -171.39)" d="m518.26 607.65l-0.3 4.75-0.41 6.7-0.18 2.79-0.41 6.7-0.18 2.8-0.41 6.69-4.72 76.17a12.91 12.91 0 0 1 -12.88 12.11h-24.53a12.89 12.89 0 0 1 -12.86 -12.11l-4.75-76.17-0.41-6.69-0.17-2.8-0.4-6.72-0.18-2.79-0.41-6.7-0.3-4.74a6.69 6.69 0 0 1 6.26 -7.08h50.57a6.66 6.66 0 0 1 6.68 6.66c0 0.14 0 0.29-0.01 0.43z" fill="#3f3d56"/>
<polygon points="454.24 441.01 453.82 447.7 391.74 447.7 391.33 441.01" fill="#9d9cb5"/>
<polygon points="453.65 450.5 453.24 457.2 392.33 457.2 391.91 450.5" fill="#9d9cb5"/>
<polygon points="453.06 459.99 452.64 466.69 392.93 466.69 392.51 459.99" fill="#9d9cb5"/>
<path transform="translate(-63.72 -171.39)" d="m447.91 542.11c27.25 19.71 38.6 50.55 38.6 50.55s-32.84-1.13-60.13-20.84-38.6-50.55-38.6-50.55 32.87 1.13 60.13 20.84z" fill="#6c63ff"/>
<path transform="translate(-63.72 -171.39)" d="m387.82 521.27s34.09 19 45 34.6 53.67 36.8 53.67 36.8" fill="none" stroke="#535461" stroke-miterlimit="10" stroke-width="2px"/>
<path transform="translate(-63.72 -171.39)" d="m465.5 502.43c14.82 10.71 21 27.52 21 27.52s-17.87-0.61-32.71-11.35-21-27.51-21-27.51 17.88 0.57 32.71 11.34z" fill="#6c63ff"/>
<path transform="translate(-63.72 -171.39)" d="m432.8 491.05s18.55 10.3 24.49 18.82 29.22 20 29.22 20" fill="none" stroke="#535461" stroke-miterlimit="10" stroke-width="2px"/>
<path transform="translate(-63.72 -171.39)" d="m508.07 529.06c-17.05 18.72-20.65 43.18-20.65 43.18s24-5.89 41.06-24.61 20.64-43.2 20.64-43.2-24.02 5.89-41.05 24.63z" fill="#6c63ff"/>
<path transform="translate(-63.72 -171.39)" d="m549.12 504.43s-22.19 19.2-27.83 32.43-33.87 35.42-33.87 35.42" fill="none" stroke="#535461" stroke-miterlimit="10" stroke-width="2px"/>
</svg>
